<svg id="Layer_1" data-name="Layer 1" xmlns="http://www.w3.org/2000/svg" viewBox="0 0 269.29 108.12"><defs><style>.cls-1{fill:#b9e5f9;}.cls-2{fill:#6d8dc8;}.cls-3{fill:#4b60ac;}.cls-4{fill:#e0ddef;}.cls-5{font-size:12px;fill:#231f20;stroke:#2e3192;stroke-miterlimit:10;font-family:SungAbed;}</style></defs><polyline class="cls-1" points="71.28 98 200.62 80.33 208.62 79.07 215.68 72.83 222.95 59.55 224.82 50.48 226 36.48 188.1 41.53 149.16 47.21 0 67.71 19.5 78.37 49.85 92.6 71.28 98"/><path class="cls-1" d="M185.86,107.08" transform="translate(-28 -22)"/><polygon class="cls-2" points="36.94 52.38 75.71 51.51 107.52 46.07 128.73 43.45 154.11 39.35 189.06 28.72 153.94 15.54 138.64 10.5 36.94 52.38"/><polygon class="cls-3" points="32.42 50.48 134.66 7.57 108.58 0 32.42 50.48"/><path class="cls-4" d="M217.06,50.72Q104.94,71.87,105.23,73.25t100.52-15" transform="translate(-28 -22)"/><path class="cls-1" d="M241.91,28" transform="translate(-28 -22)"/><text class="cls-5" transform="translate(158.77 98.05)">Sal Island</text></svg>